<svg id="Capa_1" enable-background="new 0 0 512 512" height="512" viewBox="0 0 512 512" width="512" xmlns="http://www.w3.org/2000/svg"><g><path d="m256 406h-15v106h15 15v-106z" fill="#ff641a"/><path d="m256 406h15v106h-15z" fill="#f03800"/><path d="m329.491 60c-6.972-34.189-37.265-60-73.491-60s-66.519 25.811-73.491 60h-61.509v60l30 15-30 15v30l30 15-30 15v76c0 52.808 39.185 96.636 90 103.931v31.069h45 45v-31.069c50.815-7.295 90-51.123 90-103.931v-226z" fill="#f0f7ff"/><path d="m301 389.931c50.815-7.295 90-51.123 90-103.931v-226h-61.509c-6.972-34.189-37.265-60-73.491-60v421h45z" fill="#dfe7f4"/><g fill="#dfe7f4"><path d="m121 120h90v30h-90z"/><path d="m121 180h90v30h-90z"/></g><path d="m256 60h-15v30h15 15v-30z" fill="#444"/><path d="m256 60h15v30h-15z" fill="#292929"/><path d="m316 241c-24.741 0-48.765 8.762-60 13.521-3.887 1.646-6.292 2.825-6.599 2.979-.3.3-27.301 13.5-53.401 13.5-17.401 0-35.099-5.7-45-9.6v24.6c0 42.303 34.296 75 75 75h15v30h15 15v-30h15c41.4 0 75-33.6 75-75v-36.901c-12.299-4.199-28.2-8.099-45-8.099z" fill="#ff641a"/><path d="m271 361h15c41.4 0 75-33.6 75-75v-36.901c-12.299-4.199-28.2-8.099-45-8.099-24.741 0-48.765 8.762-60 13.521v136.479h15z" fill="#f03800"/></g></svg>