<svg xmlns="http://www.w3.org/2000/svg" x="0px" y="0px" width="100" height="100" viewBox="0 0 172 172" style=" fill:#000000;">
	<g transform="translate(1.462,1.462) scale(0.983,0.983)">
		<g fill="none" fill-rule="nonzero" stroke="none" stroke-width="none" stroke-linecap="butt" stroke-linejoin="none" stroke-miterlimit="10" stroke-dasharray="" stroke-dashoffset="0" font-family="none" font-weight="none" font-size="none" text-anchor="none" style="mix-blend-mode: normal">
			<g id="Layer_1 1" stroke="#000000" stroke-width="3" stroke-linejoin="round">
				<g>
					<g fill="#444b54">
						<g>
							<path d="M49.71875,27.14375c-1.34375,0 -2.6875,-0.67187 -3.49375,-2.01562c-1.075,-1.88125 -0.40313,-4.43438 1.47812,-5.50938c11.55625,-6.71875 24.85938,-10.2125 38.29688,-10.2125c13.4375,0 26.74063,3.49375 38.29688,10.2125c1.88125,1.075 2.55313,3.62813 1.47812,5.50938c-1.075,1.88125 -3.62812,2.55312 -5.50937,1.47812c-10.34687,-5.9125 -22.17187,-9.1375 -34.26562,-9.1375c-12.09375,0 -23.91875,3.225 -34.26562,9.1375c-0.67187,0.40313 -1.34375,0.5375 -2.01562,0.5375z">
							</path>
						</g>
						<g>
							<path d="M130.34375,55.09375c-1.20937,0 -2.41875,-0.5375 -3.225,-1.47812c-10.07812,-12.76562 -24.99375,-20.02188 -41.11875,-20.02188c-4.03125,0 -8.19688,0.5375 -12.09375,1.47812c-2.15,0.5375 -4.3,-0.80625 -4.8375,-2.95625c-0.5375,-2.15 0.80625,-4.3 2.95625,-4.8375c4.56875,-1.20938 9.27187,-1.74687 13.975,-1.74687c18.54375,0 35.87812,8.33125 47.43437,22.97813c1.34375,1.74688 1.075,4.3 -0.67187,5.64375c-0.67187,0.67187 -1.6125,0.94062 -2.41875,0.94062z">
							</path>
						</g>
						<g>
							<path d="M41.65625,55.09375c-0.80625,0 -1.74688,-0.26875 -2.55313,-0.80625c-1.74687,-1.34375 -2.01562,-3.89688 -0.67187,-5.64375c4.70313,-5.9125 10.34688,-10.88438 16.93125,-14.78125c1.88125,-1.075 4.43437,-0.5375 5.50937,1.47812c1.075,1.88125 0.5375,4.43438 -1.47812,5.50938c-5.64375,3.35938 -10.61563,7.65937 -14.64688,12.76563c-0.67188,1.075 -1.88125,1.47812 -3.09063,1.47812z">
							</path>
						</g>
						<g>
							<path d="M126.3125,100.78125c-2.28437,0 -4.03125,-1.74688 -4.03125,-4.03125v-10.75c0,-5.9125 -1.47812,-11.825 -4.3,-17.06562c-1.075,-2.01562 -0.26875,-4.43438 1.6125,-5.50938c2.01563,-1.075 4.43438,-0.26875 5.50937,1.6125c3.49375,6.45 5.24063,13.70625 5.24063,20.9625v10.75c0,2.28437 -1.74687,4.03125 -4.03125,4.03125z">
							</path>
						</g>
						<g>
							<path d="M109.78438,57.5125c-0.80625,0 -1.6125,-0.26875 -2.41875,-0.80625c-6.18125,-4.56875 -13.57188,-6.9875 -21.36563,-6.9875c-6.58437,0 -13.16875,1.74687 -18.67812,5.24063c-1.88125,1.20937 -4.43438,0.5375 -5.50938,-1.34375c-1.20938,-1.88125 -0.5375,-4.43438 1.34375,-5.50938c6.85313,-4.3 14.78125,-6.45 22.84375,-6.45c9.54062,0 18.54375,2.95625 26.20313,8.46562c1.74688,1.34375 2.15,3.89688 0.94062,5.64375c-0.94062,1.075 -2.15,1.74687 -3.35937,1.74687z">
							</path>
						</g>
						<g>
							<path d="M45.6875,90.03125c-2.28438,0 -4.03125,-1.74688 -4.03125,-4.03125c0,-7.79375 2.01563,-15.45312 5.9125,-22.17187c1.075,-1.88125 3.62812,-2.55313 5.50937,-1.47812c1.88125,1.075 2.55313,3.62813 1.47812,5.50937c-3.225,5.50938 -4.8375,11.825 -4.8375,18.14063c0,2.28437 -1.74687,4.03125 -4.03125,4.03125z">
							</path>
						</g>
						<g>
							<path d="M45.6875,106.15625h-13.4375c-2.28438,0 -4.03125,-1.74688 -4.03125,-4.03125c0,-2.28437 1.74687,-4.03125 4.03125,-4.03125h13.4375c6.71875,0 12.09375,-5.375 12.09375,-12.09375c0,-9.94375 5.10625,-18.94688 13.57188,-24.05312c1.88125,-1.20937 4.43437,-0.5375 5.50937,1.34375c1.20938,1.88125 0.5375,4.43437 -1.34375,5.50937c-6.04687,3.62812 -9.675,10.07813 -9.675,17.2c0,11.15313 -9.00313,20.15625 -20.15625,20.15625z">
							</path>
						</g>
						<g>
							<path d="M108.97813,83.17812c-1.74687,0 -3.35937,-1.075 -3.89688,-2.82187c-2.41875,-7.525 -8.73437,-13.16875 -16.39375,-14.24375c-2.15,-0.26875 -3.7625,-2.41875 -3.35937,-4.56875c0.26875,-2.15 2.41875,-3.7625 4.56875,-3.35937c10.61563,1.47813 19.61875,9.27188 22.84375,19.8875c0.67188,2.15 -0.5375,4.43438 -2.6875,5.10625c-0.26875,-0.13437 -0.67187,0 -1.075,0z">
							</path>
						</g>
						<g>
							<path d="M112.20313,119.45938c-1.47812,0 -2.82187,-0.80625 -3.49375,-2.01562c-1.6125,-3.09063 -2.55313,-6.45 -2.55313,-9.94375v-11.825c0,-2.28437 1.74688,-4.03125 4.03125,-4.03125c2.28437,0 4.03125,1.74688 4.03125,4.03125v11.825c0,2.01563 0.5375,4.16562 1.47812,5.9125c1.075,1.88125 0.40313,4.43437 -1.47812,5.50937c-0.67187,0.26875 -1.34375,0.5375 -2.01562,0.5375z">
							</path>
						</g>
						<g>
							<path d="M46.225,138.40625h-3.225c-2.28437,0 -4.03125,-1.74687 -4.03125,-4.03125c0,-2.28438 1.74688,-4.03125 4.03125,-4.03125h3.225c24.1875,0 43.80625,-19.61875 43.80625,-43.80625c0,-2.41875 -1.74688,-4.56875 -3.89688,-4.56875l-0.13437,0c-1.34375,0 -2.28437,0.67188 -2.82188,1.075c-0.26875,0.26875 -0.80625,0.94062 -1.075,1.74687c-0.13438,0.40313 -0.13438,0.80625 -0.13438,1.20938c0,2.28437 -1.74688,4.03125 -4.03125,4.03125c-2.28437,0 -4.03125,-1.74688 -4.03125,-4.03125c0,-1.20937 0.13438,-2.28437 0.5375,-3.35937c0.80625,-2.55312 2.15,-4.3 3.225,-5.24062c1.34375,-1.34375 4.43437,-3.49375 8.86875,-3.35937c6.45,0.26875 11.55625,5.9125 11.55625,12.63125c0,28.4875 -23.24687,51.73438 -51.86875,51.73438z">
							</path>
						</g>
						<g>
							<path d="M45.6875,122.28125h-10.75c-2.28437,0 -4.03125,-1.74688 -4.03125,-4.03125c0,-2.28437 1.74688,-4.03125 4.03125,-4.03125h10.75c10.88437,0 20.55938,-6.04687 25.39687,-15.85625c0.94063,-2.01562 3.35938,-2.82187 5.375,-1.88125c2.01563,0.94062 2.82188,3.35938 1.88125,5.375c-6.18125,12.63125 -18.67813,20.425 -32.65313,20.425z">
							</path>
						</g>
						<g>
							<path d="M56.84063,153.59062c-1.88125,0 -3.62813,-1.34375 -4.03125,-3.35937c-0.40312,-2.15 1.075,-4.3 3.225,-4.70312c12.63125,-2.15 24.32188,-8.33125 32.92187,-17.2c2.28438,-2.41875 5.50937,-3.7625 8.86875,-3.7625c3.225,0 6.18125,1.20938 8.46563,3.49375c1.6125,1.6125 1.6125,4.16563 0,5.64375c-1.6125,1.6125 -4.16562,1.6125 -5.64375,0c-0.94062,-0.94063 -2.01562,-1.075 -2.6875,-1.075c-1.075,0 -2.28437,0.5375 -3.09062,1.34375c-9.80938,10.07813 -23.1125,17.06562 -37.35625,19.48438c-0.13437,0.13437 -0.40312,0.13437 -0.67187,0.13437z">
							</path>
						</g>
					</g>
					<g fill="#444b54">
						<path d="M29.5625,90.03125c-2.28438,0 -4.03125,-1.74688 -4.03125,-4.03125c0,-5.64375 0.80625,-11.15313 2.28438,-16.52813c2.6875,-9.27187 7.525,-18.00625 14.24375,-24.99375c1.47813,-1.6125 4.03125,-1.74687 5.64375,-0.13437c1.6125,1.47812 1.74687,4.03125 0.13437,5.64375c-5.77812,6.18125 -10.07812,13.57187 -12.3625,21.76875c-1.34375,4.70313 -2.01562,9.40625 -2.01562,14.37812c0.13437,2.15 -1.6125,3.89687 -3.89688,3.89687z">
						</path>
					</g>
					<g fill="#444b54">
						<path d="M142.4375,94.0625c-2.28438,0 -4.03125,-1.74688 -4.03125,-4.03125v-4.03125c0,-17.46875 -8.6,-33.72812 -23.1125,-43.40312c-1.88125,-1.20938 -2.28438,-3.7625 -1.075,-5.64375c1.20938,-1.88125 3.7625,-2.28438 5.64375,-1.075c16.6625,11.2875 26.60625,29.96562 26.60625,50.12188v4.03125c0,2.28437 -1.74687,4.03125 -4.03125,4.03125z">
						</path>
					</g>
					<g>
						<g>
							<g>
								<g>
									<g fill="#fcca3d">
										<g>
											<g>
												<path d="M169.98438,167.1625c-1.20938,2.15 -3.49375,3.35938 -5.9125,3.35938h-56.84062c-2.55313,0 -4.70312,-1.20937 -5.9125,-3.35937c-1.20938,-2.15 -1.075,-4.56875 0.13437,-6.71875l28.4875,-47.43437c1.20937,-2.01562 3.35938,-3.225 5.77812,-3.225c2.41875,0 4.56875,1.20938 5.77812,3.225l28.4875,47.43437c1.20937,2.15 1.20937,4.70313 0,6.71875z">
												</path>
											</g>
										</g>
									</g>
									<g fill="#ffffff">
										<g>
											<g>
												<path d="M135.71875,147.8125c-2.28438,0 -4.03125,-1.74687 -4.03125,-4.03125v-13.4375c0,-2.28438 1.74687,-4.03125 4.03125,-4.03125c2.28438,0 4.03125,1.74687 4.03125,4.03125v13.4375c0,2.28438 -1.74687,4.03125 -4.03125,4.03125z">
												</path>
											</g>
										</g>
									</g>
									<g fill="#ffffff">
										<g>
											<g>
												<path d="M135.71875,161.25c-1.075,0 -2.15,-0.40312 -2.82188,-1.20937c-0.13437,-0.13438 -0.40312,-0.40313 -0.5375,-0.67187c-0.13438,-0.26875 -0.26875,-0.40313 -0.40312,-0.67187c-0.13438,-0.26875 -0.13438,-0.5375 -0.26875,-0.80625c0,-0.26875 -0.13438,-0.5375 -0.13438,-0.80625c0,-1.075 0.40313,-2.15 1.20938,-2.82187c1.47812,-1.47813 4.16562,-1.47813 5.64375,0c0.80625,0.80625 1.20937,1.74687 1.20937,2.82187c0,0.26875 0,0.5375 -0.13437,0.80625c0,0.26875 -0.13438,0.5375 -0.26875,0.80625c-0.13438,0.26875 -0.26875,0.5375 -0.40312,0.67188c-0.13438,0.26875 -0.26875,0.40312 -0.5375,0.67188c-0.40313,0.80625 -1.47813,1.20937 -2.55313,1.20937z">
												</path>
											</g>
										</g>
									</g>
								</g>
							</g>
						</g>
					</g>
				</g>
			</g>
			<path d="M0,172v-172h172v172z" fill="none" stroke="none" stroke-width="1" stroke-linejoin="miter">
			</path>
			<g id="Layer_1" stroke="none" stroke-width="1" stroke-linejoin="miter">
				<g>
					<g fill="#444b54">
						<g>
							<path d="M49.71875,27.14375c-1.34375,0 -2.6875,-0.67187 -3.49375,-2.01562c-1.075,-1.88125 -0.40313,-4.43438 1.47812,-5.50938c11.55625,-6.71875 24.85938,-10.2125 38.29688,-10.2125c13.4375,0 26.74063,3.49375 38.29688,10.2125c1.88125,1.075 2.55313,3.62813 1.47812,5.50938c-1.075,1.88125 -3.62812,2.55312 -5.50937,1.47812c-10.34687,-5.9125 -22.17187,-9.1375 -34.26562,-9.1375c-12.09375,0 -23.91875,3.225 -34.26562,9.1375c-0.67187,0.40313 -1.34375,0.5375 -2.01562,0.5375z">
							</path>
						</g>
						<g>
							<path d="M130.34375,55.09375c-1.20937,0 -2.41875,-0.5375 -3.225,-1.47812c-10.07812,-12.76562 -24.99375,-20.02188 -41.11875,-20.02188c-4.03125,0 -8.19688,0.5375 -12.09375,1.47812c-2.15,0.5375 -4.3,-0.80625 -4.8375,-2.95625c-0.5375,-2.15 0.80625,-4.3 2.95625,-4.8375c4.56875,-1.20938 9.27187,-1.74687 13.975,-1.74687c18.54375,0 35.87812,8.33125 47.43437,22.97813c1.34375,1.74688 1.075,4.3 -0.67187,5.64375c-0.67187,0.67187 -1.6125,0.94062 -2.41875,0.94062z">
							</path>
						</g>
						<g>
							<path d="M41.65625,55.09375c-0.80625,0 -1.74688,-0.26875 -2.55313,-0.80625c-1.74687,-1.34375 -2.01562,-3.89688 -0.67187,-5.64375c4.70313,-5.9125 10.34688,-10.88438 16.93125,-14.78125c1.88125,-1.075 4.43437,-0.5375 5.50937,1.47812c1.075,1.88125 0.5375,4.43438 -1.47812,5.50938c-5.64375,3.35938 -10.61563,7.65937 -14.64688,12.76563c-0.67188,1.075 -1.88125,1.47812 -3.09063,1.47812z">
							</path>
						</g>
						<g>
							<path d="M126.3125,100.78125c-2.28437,0 -4.03125,-1.74688 -4.03125,-4.03125v-10.75c0,-5.9125 -1.47812,-11.825 -4.3,-17.06562c-1.075,-2.01562 -0.26875,-4.43438 1.6125,-5.50938c2.01563,-1.075 4.43438,-0.26875 5.50937,1.6125c3.49375,6.45 5.24063,13.70625 5.24063,20.9625v10.75c0,2.28437 -1.74687,4.03125 -4.03125,4.03125z">
							</path>
						</g>
						<g>
							<path d="M109.78438,57.5125c-0.80625,0 -1.6125,-0.26875 -2.41875,-0.80625c-6.18125,-4.56875 -13.57188,-6.9875 -21.36563,-6.9875c-6.58437,0 -13.16875,1.74687 -18.67812,5.24063c-1.88125,1.20937 -4.43438,0.5375 -5.50938,-1.34375c-1.20938,-1.88125 -0.5375,-4.43438 1.34375,-5.50938c6.85313,-4.3 14.78125,-6.45 22.84375,-6.45c9.54062,0 18.54375,2.95625 26.20313,8.46562c1.74688,1.34375 2.15,3.89688 0.94062,5.64375c-0.94062,1.075 -2.15,1.74687 -3.35937,1.74687z">
							</path>
						</g>
						<g>
							<path d="M45.6875,90.03125c-2.28438,0 -4.03125,-1.74688 -4.03125,-4.03125c0,-7.79375 2.01563,-15.45312 5.9125,-22.17187c1.075,-1.88125 3.62812,-2.55313 5.50937,-1.47812c1.88125,1.075 2.55313,3.62813 1.47812,5.50937c-3.225,5.50938 -4.8375,11.825 -4.8375,18.14063c0,2.28437 -1.74687,4.03125 -4.03125,4.03125z">
							</path>
						</g>
						<g>
							<path d="M45.6875,106.15625h-13.4375c-2.28438,0 -4.03125,-1.74688 -4.03125,-4.03125c0,-2.28437 1.74687,-4.03125 4.03125,-4.03125h13.4375c6.71875,0 12.09375,-5.375 12.09375,-12.09375c0,-9.94375 5.10625,-18.94688 13.57188,-24.05312c1.88125,-1.20937 4.43437,-0.5375 5.50937,1.34375c1.20938,1.88125 0.5375,4.43437 -1.34375,5.50937c-6.04687,3.62812 -9.675,10.07813 -9.675,17.2c0,11.15313 -9.00313,20.15625 -20.15625,20.15625z">
							</path>
						</g>
						<g>
							<path d="M108.97813,83.17812c-1.74687,0 -3.35937,-1.075 -3.89688,-2.82187c-2.41875,-7.525 -8.73437,-13.16875 -16.39375,-14.24375c-2.15,-0.26875 -3.7625,-2.41875 -3.35937,-4.56875c0.26875,-2.15 2.41875,-3.7625 4.56875,-3.35937c10.61563,1.47813 19.61875,9.27188 22.84375,19.8875c0.67188,2.15 -0.5375,4.43438 -2.6875,5.10625c-0.26875,-0.13437 -0.67187,0 -1.075,0z">
							</path>
						</g>
						<g>
							<path d="M112.20313,119.45938c-1.47812,0 -2.82187,-0.80625 -3.49375,-2.01562c-1.6125,-3.09063 -2.55313,-6.45 -2.55313,-9.94375v-11.825c0,-2.28437 1.74688,-4.03125 4.03125,-4.03125c2.28437,0 4.03125,1.74688 4.03125,4.03125v11.825c0,2.01563 0.5375,4.16562 1.47812,5.9125c1.075,1.88125 0.40313,4.43437 -1.47812,5.50937c-0.67187,0.26875 -1.34375,0.5375 -2.01562,0.5375z">
							</path>
						</g>
						<g>
							<path d="M46.225,138.40625h-3.225c-2.28437,0 -4.03125,-1.74687 -4.03125,-4.03125c0,-2.28438 1.74688,-4.03125 4.03125,-4.03125h3.225c24.1875,0 43.80625,-19.61875 43.80625,-43.80625c0,-2.41875 -1.74688,-4.56875 -3.89688,-4.56875l-0.13437,0c-1.34375,0 -2.28437,0.67188 -2.82188,1.075c-0.26875,0.26875 -0.80625,0.94062 -1.075,1.74687c-0.13438,0.40313 -0.13438,0.80625 -0.13438,1.20938c0,2.28437 -1.74688,4.03125 -4.03125,4.03125c-2.28437,0 -4.03125,-1.74688 -4.03125,-4.03125c0,-1.20937 0.13438,-2.28437 0.5375,-3.35937c0.80625,-2.55312 2.15,-4.3 3.225,-5.24062c1.34375,-1.34375 4.43437,-3.49375 8.86875,-3.35937c6.45,0.26875 11.55625,5.9125 11.55625,12.63125c0,28.4875 -23.24687,51.73438 -51.86875,51.73438z">
							</path>
						</g>
						<g>
							<path d="M45.6875,122.28125h-10.75c-2.28437,0 -4.03125,-1.74688 -4.03125,-4.03125c0,-2.28437 1.74688,-4.03125 4.03125,-4.03125h10.75c10.88437,0 20.55938,-6.04687 25.39687,-15.85625c0.94063,-2.01562 3.35938,-2.82187 5.375,-1.88125c2.01563,0.94062 2.82188,3.35938 1.88125,5.375c-6.18125,12.63125 -18.67813,20.425 -32.65313,20.425z">
							</path>
						</g>
						<g>
							<path d="M56.84063,153.59062c-1.88125,0 -3.62813,-1.34375 -4.03125,-3.35937c-0.40312,-2.15 1.075,-4.3 3.225,-4.70312c12.63125,-2.15 24.32188,-8.33125 32.92187,-17.2c2.28438,-2.41875 5.50937,-3.7625 8.86875,-3.7625v0c3.225,0 6.18125,1.20938 8.46563,3.49375c1.6125,1.6125 1.6125,4.16563 0,5.64375c-1.6125,1.6125 -4.16562,1.6125 -5.64375,0c-0.94062,-0.94063 -2.01562,-1.075 -2.6875,-1.075v0c-1.075,0 -2.28437,0.5375 -3.09062,1.34375c-9.80938,10.07813 -23.1125,17.06562 -37.35625,19.48438c-0.13437,0.13437 -0.40312,0.13437 -0.67187,0.13437z">
							</path>
						</g>
					</g>
					<g fill="#444b54">
						<path d="M29.5625,90.03125c-2.28438,0 -4.03125,-1.74688 -4.03125,-4.03125c0,-5.64375 0.80625,-11.15313 2.28438,-16.52813c2.6875,-9.27187 7.525,-18.00625 14.24375,-24.99375c1.47813,-1.6125 4.03125,-1.74687 5.64375,-0.13437c1.6125,1.47812 1.74687,4.03125 0.13437,5.64375c-5.77812,6.18125 -10.07812,13.57187 -12.3625,21.76875c-1.34375,4.70313 -2.01562,9.40625 -2.01562,14.37812c0.13437,2.15 -1.6125,3.89687 -3.89688,3.89687z">
						</path>
					</g>
					<g fill="#444b54">
						<path d="M142.4375,94.0625c-2.28438,0 -4.03125,-1.74688 -4.03125,-4.03125v-4.03125c0,-17.46875 -8.6,-33.72812 -23.1125,-43.40312c-1.88125,-1.20938 -2.28438,-3.7625 -1.075,-5.64375c1.20938,-1.88125 3.7625,-2.28438 5.64375,-1.075c16.6625,11.2875 26.60625,29.96562 26.60625,50.12188v4.03125c0,2.28437 -1.74687,4.03125 -4.03125,4.03125z">
						</path>
					</g>
					<g>
						<g>
							<g>
								<g>
									<g fill="#fcca3d">
										<g>
											<g>
												<path d="M169.98438,160.44375l-28.4875,-47.43437c-1.20937,-2.01562 -3.35937,-3.225 -5.77812,-3.225c-2.41875,0 -4.56875,1.20938 -5.77812,3.225l-28.4875,47.43437c-1.20938,2.15 -1.34375,4.56875 -0.13437,6.71875c1.20938,2.15 3.35938,3.35938 5.9125,3.35938h56.84062c2.41875,0 4.70313,-1.20937 5.9125,-3.35937c1.20937,-2.01562 1.20937,-4.56875 0,-6.71875z">
												</path>
											</g>
										</g>
									</g>
									<g fill="#ffffff">
										<g>
											<g>
												<path d="M135.71875,147.8125c-2.28438,0 -4.03125,-1.74687 -4.03125,-4.03125v-13.4375c0,-2.28438 1.74687,-4.03125 4.03125,-4.03125c2.28438,0 4.03125,1.74687 4.03125,4.03125v13.4375c0,2.28438 -1.74687,4.03125 -4.03125,4.03125z">
												</path>
											</g>
										</g>
									</g>
									<g fill="#ffffff">
										<g>
											<g>
												<path d="M135.71875,161.25c-1.075,0 -2.15,-0.40312 -2.82188,-1.20937c-0.13437,-0.13438 -0.40312,-0.40313 -0.5375,-0.67187c-0.13438,-0.26875 -0.26875,-0.40313 -0.40312,-0.67187c-0.13438,-0.26875 -0.13438,-0.5375 -0.26875,-0.80625c0,-0.26875 -0.13438,-0.5375 -0.13438,-0.80625c0,-1.075 0.40313,-2.15 1.20938,-2.82187c1.47812,-1.47813 4.16562,-1.47813 5.64375,0c0.80625,0.80625 1.20937,1.74687 1.20937,2.82187c0,0.26875 0,0.5375 -0.13437,0.80625c0,0.26875 -0.13438,0.5375 -0.26875,0.80625c-0.13438,0.26875 -0.26875,0.5375 -0.40312,0.67188c-0.13438,0.26875 -0.26875,0.40312 -0.5375,0.67188c-0.40313,0.80625 -1.47813,1.20937 -2.55313,1.20937z">
												</path>
											</g>
										</g>
									</g>
								</g>
							</g>
						</g>
					</g>
				</g>
			</g>
			<path d="" fill="none" stroke="none" stroke-width="1" stroke-linejoin="miter">
			</path>
			<path d="" fill="none" stroke="none" stroke-width="1" stroke-linejoin="miter">
			</path>
			<path d="" fill="none" stroke="none" stroke-width="1" stroke-linejoin="miter">
			</path>
			<path d="" fill="none" stroke="none" stroke-width="1" stroke-linejoin="miter">
			</path>
			<path d="" fill="none" stroke="none" stroke-width="1" stroke-linejoin="miter">
			</path>
			<path d="" fill="none" stroke="none" stroke-width="1" stroke-linejoin="miter">
			</path>
			<path d="" fill="none" stroke="none" stroke-width="1" stroke-linejoin="miter">
			</path>
			<path d="" fill="none" stroke="none" stroke-width="1" stroke-linejoin="miter">
			</path>
			<path d="" fill="none" stroke="none" stroke-width="1" stroke-linejoin="miter">
			</path>
			<path d="" fill="none" stroke="none" stroke-width="1" stroke-linejoin="miter">
			</path>
			<path d="" fill="none" stroke="none" stroke-width="1" stroke-linejoin="miter">
			</path>
			<path d="" fill="none" stroke="none" stroke-width="1" stroke-linejoin="miter">
			</path>
			<path d="" fill="none" stroke="none" stroke-width="1" stroke-linejoin="miter">
			</path>
			<path d="" fill="none" stroke="none" stroke-width="1" stroke-linejoin="miter">
			</path>
			<path d="" fill="none" stroke="none" stroke-width="1" stroke-linejoin="miter">
			</path>
			<path d="" fill="none" stroke="none" stroke-width="1" stroke-linejoin="miter">
			</path>
			<path d="" fill="none" stroke="none" stroke-width="1" stroke-linejoin="miter">
			</path>
			<path d="" fill="none" stroke="none" stroke-width="1" stroke-linejoin="miter">
			</path>
			<path d="" fill="none" stroke="none" stroke-width="1" stroke-linejoin="miter">
			</path>
			<path d="" fill="none" stroke="none" stroke-width="1" stroke-linejoin="miter">
			</path>
			<path d="" fill="none" stroke="none" stroke-width="1" stroke-linejoin="miter">
			</path>
			<path d="" fill="none" stroke="none" stroke-width="1" stroke-linejoin="miter">
			</path>
			<path d="" fill="none" stroke="none" stroke-width="1" stroke-linejoin="miter">
			</path>
			<path d="" fill="none" stroke="none" stroke-width="1" stroke-linejoin="miter">
			</path>
			<path d="" fill="none" stroke="none" stroke-width="1" stroke-linejoin="miter">
			</path>
			<path d="" fill="none" stroke="none" stroke-width="1" stroke-linejoin="miter">
			</path>
			<path d="" fill="none" stroke="none" stroke-width="1" stroke-linejoin="miter">
			</path>
			<path d="" fill="none" stroke="none" stroke-width="1" stroke-linejoin="miter">
			</path>
			<path d="" fill="none" stroke="none" stroke-width="1" stroke-linejoin="miter">
			</path>
			<path d="" fill="none" stroke="none" stroke-width="1" stroke-linejoin="miter">
			</path>
		</g>
	</g>
</svg>
