<svg xmlns="http://www.w3.org/2000/svg" x="0px" y="0px" width="100" height="100" viewBox="0 0 172 172" style=" fill:#000000;">
  <g transform="translate(0.516,0.516) scale(0.994,0.994)">
    <g fill="none" fill-rule="nonzero" stroke="none" stroke-width="1" stroke-linecap="butt" stroke-linejoin="none" stroke-miterlimit="10" stroke-dasharray="" stroke-dashoffset="0" font-family="none" font-weight="none" font-size="none" text-anchor="none" style="mix-blend-mode: normal">
      <g id="Layer_1 1" stroke="#000000" stroke-linejoin="round">
        <g>
          <g fill="#ffffff">
            <g>
              <g>
                <path d="M143.78125,38.96875h-79.28125l4.03125,124.96875h-16.125l4.03125,-124.96875h-14.78125c-7.39062,0 -13.4375,-6.04687 -13.4375,-13.4375c0,-7.39062 6.04688,-13.4375 13.4375,-13.4375h102.125c-7.39062,0 -13.4375,6.04688 -13.4375,13.4375"></path>
              </g>
            </g>
          </g>
          <g fill="#adf9d2">
            <path d="M64.5,159.90625v-120.9375h79.28125v120.9375z"></path>
          </g>
          <g fill="#009f96">
            <g>
              <g>
                <path d="M28.21875,25.53125c0,7.39062 6.04688,13.4375 13.4375,13.4375h14.78125v120.9375h-14.78125c-7.39062,0 -13.4375,-6.04687 -13.4375,-13.4375z"></path>
              </g>
            </g>
          </g>
          <g fill="#444b54">
            <path d="M147.8125,38.96875v120.9375c0,2.28438 -1.74687,4.03125 -4.03125,4.03125h-75.25c-2.28437,0 -4.03125,-1.74687 -4.03125,-4.03125c0,-2.28438 1.74688,-4.03125 4.03125,-4.03125h71.21875v-112.875h-71.21875c-2.28437,0 -4.16563,-2.01562 -4.03125,-4.3c0.13438,-2.15 2.15,-3.7625 4.3,-3.7625h74.98125c2.28438,0 4.03125,1.74688 4.03125,4.03125z"></path>
            <path d="M52.40625,155.875c2.28438,0 4.03125,1.74687 4.03125,4.03125c0,2.28438 -1.74687,4.03125 -4.03125,4.03125h-10.75c-9.675,0 -17.46875,-7.79375 -17.46875,-17.46875v-120.9375c0,-9.675 7.79375,-17.46875 17.46875,-17.46875h102.125c2.28438,0 4.16563,1.88125 4.03125,4.3c-0.13438,2.15 -2.01562,3.7625 -4.03125,3.7625c-5.24062,0 -9.40625,4.16562 -9.40625,9.40625c0,2.28438 -1.88125,4.16563 -4.16563,4.03125c-2.28437,-0.13438 -3.89687,-2.15 -3.89687,-4.43437c0,-3.35937 1.075,-6.45 2.6875,-9.00313h-87.34375c-5.64375,0 -10.07812,4.97188 -9.40625,10.61562c0.67188,4.8375 4.8375,8.19688 9.675,8.19688h10.48125c2.28438,0 4.16562,2.01563 4.03125,4.3c-0.13437,2.15 -2.15,3.7625 -4.3,3.7625h-10.48125c-3.49375,0 -6.71875,-1.075 -9.40625,-2.82187v106.29063c0,5.24062 4.16562,9.40625 9.40625,9.40625z"></path>
          </g>
          <g fill="#ffffff">
            <g>
              <g>
                <path d="M80.625,102.125v-18.8125c0,-2.28437 1.74688,-4.03125 4.03125,-4.03125h32.25c2.28437,0 4.03125,1.74688 4.03125,4.03125v18.8125c0,2.28437 -1.74688,4.03125 -4.03125,4.03125h-32.25c-2.28437,0 -4.03125,-1.74688 -4.03125,-4.03125z"></path>
              </g>
            </g>
          </g>
        </g>
      </g>
      <path d="M0,172v-172h172v172z" fill="none" stroke="none" stroke-linejoin="miter"></path>
      <g id="Layer_1" stroke="none" stroke-linejoin="miter">
        <g>
          <g fill="#ffffff">
            <g>
              <g>
                <path d="M130.34375,25.53125v0c0,-7.39062 6.04688,-13.4375 13.4375,-13.4375v0h-102.125c-7.39062,0 -13.4375,6.04688 -13.4375,13.4375v0c0,7.39063 6.04688,13.4375 13.4375,13.4375h14.78125l-4.03125,124.96875h16.125l-4.03125,-124.96875h79.28125v0"></path>
              </g>
            </g>
          </g>
          <g fill="#adf9d2">
            <rect x="48" y="29" transform="scale(1.34375,1.34375)" width="59" height="90"></rect>
          </g>
          <g fill="#009f96">
            <g>
              <g>
                <path d="M28.21875,25.53125v120.9375c0,7.39063 6.04688,13.4375 13.4375,13.4375h14.78125v-120.9375h-14.78125c-7.39062,0 -13.4375,-6.04687 -13.4375,-13.4375z"></path>
              </g>
            </g>
          </g>
          <g fill="#444b54">
            <path d="M143.78125,34.9375h-74.98125c-2.15,0 -4.16562,1.6125 -4.3,3.7625c-0.13438,2.28437 1.74688,4.3 4.03125,4.3h71.21875v112.875h-71.21875c-2.28437,0 -4.03125,1.74687 -4.03125,4.03125v0c0,2.28438 1.74688,4.03125 4.03125,4.03125h75.25c2.28438,0 4.03125,-1.74687 4.03125,-4.03125v-120.9375c0,-2.28437 -1.74687,-4.03125 -4.03125,-4.03125z"></path>
            <path d="M41.65625,155.875c-5.24063,0 -9.40625,-4.16563 -9.40625,-9.40625v-106.29062c2.6875,1.74687 5.9125,2.82187 9.40625,2.82187h10.48125c2.15,0 4.16563,-1.6125 4.3,-3.7625c0.13437,-2.28437 -1.74687,-4.3 -4.03125,-4.3h-10.48125c-4.8375,0 -9.00312,-3.35937 -9.675,-8.19688c-0.67187,-5.64375 3.7625,-10.61562 9.40625,-10.61562h87.34375c-1.6125,2.55313 -2.6875,5.64375 -2.6875,9.00313c0,2.28437 1.6125,4.3 3.89687,4.43437c2.28438,0.13438 4.16563,-1.74687 4.16563,-4.03125c0,-5.24063 4.16563,-9.40625 9.40625,-9.40625c2.01563,0 3.89687,-1.6125 4.03125,-3.7625c0.13438,-2.41875 -1.74687,-4.3 -4.03125,-4.3h-102.125c-9.675,0 -17.46875,7.79375 -17.46875,17.46875v120.9375c0,9.675 7.79375,17.46875 17.46875,17.46875h10.75c2.28438,0 4.03125,-1.74687 4.03125,-4.03125v0c0,-2.28438 -1.74687,-4.03125 -4.03125,-4.03125z"></path>
          </g>
          <g fill="#ffffff">
            <g>
              <g>
                <path d="M84.65625,106.15625h32.25c2.28437,0 4.03125,-1.74688 4.03125,-4.03125v-18.8125c0,-2.28437 -1.74688,-4.03125 -4.03125,-4.03125h-32.25c-2.28437,0 -4.03125,1.74688 -4.03125,4.03125v18.8125c0,2.28437 1.74688,4.03125 4.03125,4.03125z"></path>
              </g>
            </g>
          </g>
        </g>
      </g>
      <path d="" fill="none" stroke="none" stroke-linejoin="miter"></path>
      <path d="" fill="none" stroke="none" stroke-linejoin="miter"></path>
      <path d="" fill="none" stroke="none" stroke-linejoin="miter"></path>
      <path d="" fill="none" stroke="none" stroke-linejoin="miter"></path>
      <path d="" fill="none" stroke="none" stroke-linejoin="miter"></path>
      <path d="" fill="none" stroke="none" stroke-linejoin="miter"></path>
      <path d="" fill="none" stroke="none" stroke-linejoin="miter"></path>
      <path d="" fill="none" stroke="none" stroke-linejoin="miter"></path>
      <path d="" fill="none" stroke="none" stroke-linejoin="miter"></path>
      <path d="" fill="none" stroke="none" stroke-linejoin="miter"></path>
      <path d="" fill="none" stroke="none" stroke-linejoin="miter"></path>
      <path d="" fill="none" stroke="none" stroke-linejoin="miter"></path>
      <path d="" fill="none" stroke="none" stroke-linejoin="miter"></path>
    </g>
  </g>
</svg>
