<svg xmlns="http://www.w3.org/2000/svg" x="0px" y="0px" width="100" height="100" viewBox="0 0 128 128" style="enable-background:new 0 0 128 128;; fill:#000000;">
	<g>
		<g>
			<g>
				<g>
					<path d="M112,127H99l0-106h13c5.5,0,10,4.5,10,10v86C122,122.5,117.5,127,112,127z" style="fill:#FF5576;">
					</path>
				</g>
			</g>
		</g>
		<g>
			<g>
				<g>
					<path d="M99,124H19c-5.5,0-10-4.5-10-10V34c0-5.5,4.5-10,10-10h80c5.5,0,10,4.5,10,10v80					C109,119.5,104.5,124,99,124z" style="fill:#FFFFFF;">
					</path>
				</g>
			</g>
		</g>
		<g>
			<path d="M99,21h-7v-2c0-4.4-3.6-8-8-8s-8,3.6-8,8v10c0,4.4,3.6,8,8,8c1.7,0,3-1.3,3-3s-1.3-3-3-3c-1.1,0-2-0.9-2-2V19			c0-1.1,0.9-2,2-2s2,0.9,2,2v5c0,1.7,1.3,3,3,3h10c3.9,0,7,3.1,7,7v80c0,3.9-3.1,7-7,7H19c-3.9,0-7-3.1-7-7V34c0-3.9,3.1-7,7-7h5			c1.7,0,3-1.3,3-3s-1.3-3-3-3h-5c-7.2,0-13,5.8-13,13v80c0,7.2,5.8,13,13,13h80c7.2,0,13-5.8,13-13V34C112,26.8,106.2,21,99,21z" style="fill:#444B54;">
			</path>
			<path d="M39,37c1.7,0,3-1.3,3-3s-1.3-3-3-3c-1.1,0-2-0.9-2-2V19c0-1.1,0.9-2,2-2s2,0.9,2,2v5c0,1.7,1.3,3,3,3h25			c1.7,0,3-1.3,3-3s-1.3-3-3-3H47v-2c0-4.4-3.6-8-8-8s-8,3.6-8,8v10C31,33.4,34.6,37,39,37z" style="fill:#444B54;">
			</path>
		</g>
	</g>
	<path d="M51.9,76.1C56.5,71.5,59,65.4,59,59v40" style="fill:none;stroke:#444B54;stroke-width:6;stroke-linecap:round;stroke-linejoin:round;stroke-miterlimit:10;">
	</path>
	<line x1="52" y1="99" x2="66" y2="99" style="fill:none;stroke:#444B54;stroke-width:6;stroke-linecap:round;stroke-linejoin:round;stroke-miterlimit:10;">
	</line>
</svg>
