<svg xmlns="http://www.w3.org/2000/svg" x="0px" y="0px" width="100" height="100" viewBox="0 0 192 192" style=" fill:#000000;">
	<g transform="translate(1.92,1.92) scale(0.98,0.98)">
		<g fill="none" fill-rule="nonzero" stroke="none" stroke-width="none" stroke-linecap="butt" stroke-linejoin="none" stroke-miterlimit="10" stroke-dasharray="" stroke-dashoffset="0" font-family="none" font-weight="none" font-size="none" text-anchor="none" style="mix-blend-mode: normal">
			<g id="Layer_1 1" stroke="#000000" stroke-width="4" stroke-linejoin="round">
				<g>
					<g fill="#ffffff">
						<path d="M148.5,109.5v16.5c0,28.95 -23.55,52.5 -52.5,52.5c-28.95,0 -52.5,-23.55 -52.5,-52.5v-16.5">
						</path>
					</g>
					<g fill="#1fd4af">
						<g>
							<path d="M137.85,174.15c-11.7,-11.7 -11.7,-30.75 0,-42.45c11.4,-11.4 29.7,-11.7 41.55,-0.9c0.3,0.3 -1.05,3.75 -0.75,4.05c1.2,1.2 3.9,2.55 4.8,3c0.45,0.15 -0.75,1.5 -0.3,1.5c0.15,0 1.8,-1.8 1.95,-1.5c6.6,11.4 4.95,26.4 -4.8,36.15c-11.85,12 -30.75,12 -42.45,0.15z">
							</path>
						</g>
					</g>
					<g fill="#ffffff">
						<g>
							<path d="M159.3,153.6l20.1,-22.5c2.25,1.95 4.2,4.35 5.7,7.05l-22.65,25.5c-0.75,0.9 -1.95,1.5 -3.3,1.5h-0.15c-1.35,-0.15 -2.7,-0.75 -3.45,-1.8l-10.5,-13.5c-1.5,-1.95 -1.2,-4.8 0.75,-6.3c1.95,-1.5 4.8,-1.2 6.3,0.75z">
							</path>
						</g>
					</g>
					<g>
						<g fill="#ffffff">
							<path d="M159,102c0,4.95 -4.05,9 -9,9h-108c-4.95,0 -9,-4.05 -9,-9c0,-4.95 4.05,-9 9,-9h108c4.95,0 9,4.05 9,9z">
							</path>
						</g>
						<g fill="#444b54">
							<path d="M96,183c-31.5,0 -57,-25.5 -57,-57c0,-2.55 1.95,-4.5 4.5,-4.5c2.55,0 4.5,1.95 4.5,4.5c0,26.4 21.6,48 48,48c6.15,0 12.3,-1.2 18,-3.45c2.25,-0.9 4.95,0.15 5.85,2.55c0.9,2.25 -0.15,4.95 -2.55,5.85c-6.75,2.7 -13.95,4.05 -21.3,4.05z">
							</path>
						</g>
						<g fill="#444b54">
							<path d="M150,115.5h-85.5c-2.55,0 -4.5,-1.95 -4.5,-4.5c0,-2.55 1.95,-4.5 4.5,-4.5h85.5c2.55,0 4.5,-1.95 4.5,-4.5c0,-2.55 -1.95,-4.5 -4.5,-4.5h-108c-2.55,0 -4.5,1.95 -4.5,4.5c0,2.55 1.95,4.5 4.5,4.5c2.55,0 4.5,1.95 4.5,4.5c0,2.55 -1.95,4.5 -4.5,4.5c-7.5,0 -13.5,-6 -13.5,-13.5c0,-7.5 6,-13.5 13.5,-13.5h108c7.5,0 13.5,6 13.5,13.5c0,7.5 -6,13.5 -13.5,13.5z">
							</path>
						</g>
						<g fill="#444b54">
							<path d="M133.5,97.5c-2.55,0 -4.5,-1.95 -4.5,-4.5v-37.5c0,-18.15 -14.85,-33 -33,-33c-18.15,0 -33,14.85 -33,33v37.5c0,2.55 -1.95,4.5 -4.5,4.5c-2.55,0 -4.5,-1.95 -4.5,-4.5v-37.5c0,-23.1 18.9,-42 42,-42c23.1,0 42,18.9 42,42v37.5c0,2.55 -1.95,4.5 -4.5,4.5z">
							</path>
						</g>
					</g>
					<g fill="#444b54">
						<path d="M96,156c-2.55,0 -4.5,-1.95 -4.5,-4.5v-10.5c0,-2.55 1.95,-4.5 4.5,-4.5c2.55,0 4.5,1.95 4.5,4.5v10.5c0,2.55 -1.95,4.5 -4.5,4.5z">
						</path>
					</g>
				</g>
			</g>
			<path d="M0,192v-192h192v192z" fill="none" stroke="none" stroke-width="1" stroke-linejoin="miter">
			</path>
			<g id="Layer_1" stroke="none" stroke-width="1" stroke-linejoin="miter">
				<g>
					<g fill="#ffffff">
						<path d="M43.5,109.5v16.5c0,28.95 23.55,52.5 52.5,52.5c28.95,0 52.5,-23.55 52.5,-52.5v-16.5">
						</path>
					</g>
					<g fill="#1fd4af">
						<g>
							<path d="M137.85,174.15c-11.7,-11.7 -11.7,-30.75 0,-42.45c11.4,-11.4 29.7,-11.7 41.55,-0.9c0.3,0.3 -1.05,3.75 -0.75,4.05c1.2,1.2 3.9,2.55 4.8,3c0.45,0.15 -0.75,1.5 -0.3,1.5c0.15,0 1.8,-1.8 1.95,-1.5c6.6,11.4 4.95,26.4 -4.8,36.15c-11.85,12 -30.75,12 -42.45,0.15z">
							</path>
						</g>
					</g>
					<g fill="#ffffff">
						<g>
							<path d="M152.1,144.3c-1.5,-1.95 -4.35,-2.25 -6.3,-0.75c-1.95,1.5 -2.25,4.35 -0.75,6.3l10.5,13.5c0.75,1.05 2.1,1.65 3.45,1.8h0.15c1.35,0 2.55,-0.6 3.3,-1.5l22.65,-25.5c-1.5,-2.7 -3.45,-5.1 -5.7,-7.05l-20.1,22.5z">
							</path>
						</g>
					</g>
					<g>
						<g fill="#ffffff">
							<path d="M150,93h-108c-4.95,0 -9,4.05 -9,9v0c0,4.95 4.05,9 9,9h108c4.95,0 9,-4.05 9,-9v0c0,-4.95 -4.05,-9 -9,-9z">
							</path>
						</g>
						<g fill="#444b54">
							<path d="M96,183c-31.5,0 -57,-25.5 -57,-57c0,-2.55 1.95,-4.5 4.5,-4.5c2.55,0 4.5,1.95 4.5,4.5c0,26.4 21.6,48 48,48c6.15,0 12.3,-1.2 18,-3.45c2.25,-0.9 4.95,0.15 5.85,2.55c0.9,2.25 -0.15,4.95 -2.55,5.85c-6.75,2.7 -13.95,4.05 -21.3,4.05z">
							</path>
						</g>
						<g fill="#444b54">
							<path d="M150,115.5h-85.5c-2.55,0 -4.5,-1.95 -4.5,-4.5c0,-2.55 1.95,-4.5 4.5,-4.5h85.5c2.55,0 4.5,-1.95 4.5,-4.5c0,-2.55 -1.95,-4.5 -4.5,-4.5h-108c-2.55,0 -4.5,1.95 -4.5,4.5c0,2.55 1.95,4.5 4.5,4.5c2.55,0 4.5,1.95 4.5,4.5c0,2.55 -1.95,4.5 -4.5,4.5c-7.5,0 -13.5,-6 -13.5,-13.5c0,-7.5 6,-13.5 13.5,-13.5h108c7.5,0 13.5,6 13.5,13.5c0,7.5 -6,13.5 -13.5,13.5z">
							</path>
						</g>
						<g fill="#444b54">
							<path d="M133.5,97.5c-2.55,0 -4.5,-1.95 -4.5,-4.5v-37.5c0,-18.15 -14.85,-33 -33,-33c-18.15,0 -33,14.85 -33,33v37.5c0,2.55 -1.95,4.5 -4.5,4.5c-2.55,0 -4.5,-1.95 -4.5,-4.5v-37.5c0,-23.1 18.9,-42 42,-42c23.1,0 42,18.9 42,42v37.5c0,2.55 -1.95,4.5 -4.5,4.5z">
							</path>
						</g>
					</g>
					<g fill="#444b54">
						<path d="M96,156c-2.55,0 -4.5,-1.95 -4.5,-4.5v-10.5c0,-2.55 1.95,-4.5 4.5,-4.5c2.55,0 4.5,1.95 4.5,4.5v10.5c0,2.55 -1.95,4.5 -4.5,4.5z">
						</path>
					</g>
				</g>
			</g>
			<path d="" fill="none" stroke="none" stroke-width="1" stroke-linejoin="miter">
			</path>
			<path d="" fill="none" stroke="none" stroke-width="1" stroke-linejoin="miter">
			</path>
			<path d="" fill="none" stroke="none" stroke-width="1" stroke-linejoin="miter">
			</path>
			<path d="" fill="none" stroke="none" stroke-width="1" stroke-linejoin="miter">
			</path>
			<path d="" fill="none" stroke="none" stroke-width="1" stroke-linejoin="miter">
			</path>
			<path d="" fill="none" stroke="none" stroke-width="1" stroke-linejoin="miter">
			</path>
			<path d="" fill="none" stroke="none" stroke-width="1" stroke-linejoin="miter">
			</path>
			<path d="" fill="none" stroke="none" stroke-width="1" stroke-linejoin="miter">
			</path>
			<path d="" fill="none" stroke="none" stroke-width="1" stroke-linejoin="miter">
			</path>
			<path d="" fill="none" stroke="none" stroke-width="1" stroke-linejoin="miter">
			</path>
			<path d="" fill="none" stroke="none" stroke-width="1" stroke-linejoin="miter">
			</path>
			<path d="" fill="none" stroke="none" stroke-width="1" stroke-linejoin="miter">
			</path>
			<path d="" fill="none" stroke="none" stroke-width="1" stroke-linejoin="miter">
			</path>
		</g>
	</g>
</svg>
