<svg xmlns="http://www.w3.org/2000/svg" xmlns:xlink="http://www.w3.org/1999/xlink" version="1.1" viewBox="0 0 192 192" width="100" height="100">
	<g transform="translate(1.92,1.92) scale(0.98,0.98)">
		<g fill="none" fill-rule="nonzero" stroke="none" stroke-width="none" stroke-linecap="butt" stroke-linejoin="none" stroke-miterlimit="10" stroke-dasharray="" stroke-dashoffset="0" font-family="none" font-weight="none" font-size="none" text-anchor="none" style="mix-blend-mode: normal">
			<g id="Layer_1 1" stroke="#000000" stroke-width="4" stroke-linejoin="round">
				<path d="M182.4,119.04c0,13.7856 -11.1744,24.96 -24.96,24.96h-122.88c-13.7856,0 -24.96,-11.1744 -24.96,-24.96c0,-13.7856 11.1744,-24.96 24.96,-24.96h2.03328c-0.07104,-0.63168 -0.11328,-1.27104 -0.11328,-1.92c0,-9.54432 7.73568,-17.28 17.28,-17.28c4.49664,0 8.57856,1.73184 11.65248,4.54656c-0.07872,-0.86592 -0.13248,-1.73952 -0.13248,-2.62656c0,-15.90528 12.89472,-28.8 28.8,-28.8c13.89312,0 25.48416,9.83808 28.19712,22.92672c4.53504,-4.66176 10.86528,-7.56672 17.88288,-7.56672c13.7856,0 24.96,11.1744 24.96,24.96c0,2.32704 -0.34176,4.5696 -0.93888,6.70656c10.50624,2.94528 18.21888,12.56832 18.21888,24.01344z" fill="#39c2d8" />
				<g fill="#fefdef">
					<path d="M96.00192,71.99808c0.83904,0 1.63776,0.36672 2.18304,1.00416l15.36,17.28c0.46656,0.54528 0.69312,1.2096 0.69312,1.87392c0,0.81216 -0.33984,1.61856 -1.00416,2.1888c-1.20768,1.03488 -3.02592,0.89664 -4.0608,-0.31104l-10.29312,-11.5104v46.11456c0,1.58976 -1.29024,2.88 -2.88,2.88c-1.58976,0 -2.88,-1.29024 -2.88,-2.88v-46.11648l-10.29312,11.5104c-1.03488,1.20768 -2.85312,1.34592 -4.0608,0.31104c-1.20576,-1.03488 -1.34592,-2.84928 -0.31104,-4.0608l15.36,-17.28c0.5472,-0.63744 1.34784,-1.00416 2.18688,-1.00416z" />
				</g>
				<g fill="#1f212b">
					<path d="M157.44,145.92h-122.88c-14.8224,0 -26.88,-12.0576 -26.88,-26.88c0,-14.8224 12.0576,-26.88 26.88,-26.88c0,-10.58688 8.61312,-19.2 19.2,-19.2c3.408,0 6.71808,0.90816 9.62496,2.6016c0.6528,-16.368 14.17152,-29.4816 30.69504,-29.4816c13.39008,0 25.20768,8.78208 29.24352,21.29856c4.75968,-3.8496 10.62912,-5.93856 16.83648,-5.93856c14.8224,0 26.88,12.0576 26.88,26.88c0,1.79328 -0.192,3.6096 -0.57024,5.42016c10.5984,3.78432 17.85024,13.93344 17.85024,25.29984c0,14.8224 -12.0576,26.88 -26.88,26.88zM34.56,96c-12.70464,0 -23.04,10.33536 -23.04,23.04c0,12.70464 10.33536,23.04 23.04,23.04h122.88c12.70464,0 23.04,-10.33536 23.04,-23.04c0,-10.27392 -6.91584,-19.38816 -16.81728,-22.16448c-1.0176,-0.28608 -1.61472,-1.34208 -1.33056,-2.3616c0.576,-2.07168 0.86784,-4.15488 0.86784,-6.19392c0,-12.70464 -10.33536,-23.04 -23.04,-23.04c-6.26304,0 -12.12288,2.48064 -16.50624,6.98688c-0.49728,0.51072 -1.23264,0.70656 -1.91424,0.50496c-0.67968,-0.19968 -1.19808,-0.7584 -1.34208,-1.45344c-2.56896,-12.39936 -13.63776,-21.3984 -26.31744,-21.3984c-14.8224,0 -26.88,12.0576 -26.88,26.88c0,0.82944 0.05184,1.64352 0.1248,2.45184c0.07104,0.78912 -0.34944,1.54368 -1.05984,1.89312c-0.7104,0.35328 -1.5648,0.23232 -2.14848,-0.30336c-2.84736,-2.60544 -6.52608,-4.0416 -10.35648,-4.0416c-8.46912,0 -15.36,6.89088 -15.36,15.36c0,0.57984 0.04032,1.14816 0.10176,1.71072c0.05952,0.54336 -0.1152,1.0848 -0.48,1.48992c-0.36288,0.40704 -0.8832,0.63936 -1.42848,0.63936z" />
				</g>
				<g fill="#1f212b">
					<path d="M138.23808,105.6c-0.2016,0 -0.40512,-0.06336 -0.57792,-0.19392c-0.42432,-0.31872 -0.5088,-0.91968 -0.19008,-1.344c0.52608,-0.7008 1.08864,-1.3728 1.66848,-1.9968c0.36096,-0.38592 0.9696,-0.40896 1.35744,-0.048c0.38784,0.36096 0.41088,0.96768 0.048,1.35744c-0.53376,0.57408 -1.05408,1.19424 -1.54176,1.8432c-0.18624,0.25152 -0.47424,0.38208 -0.76416,0.38208z" />
				</g>
				<g fill="#1f212b">
					<path d="M143.04,100.79808c-0.28992,0 -0.57984,-0.13248 -0.76608,-0.38208c-0.31872,-0.42624 -0.23424,-1.02528 0.19008,-1.344c4.34496,-3.26784 9.5232,-4.992 14.976,-4.992c2.3808,0 4.7328,0.33408 6.99072,0.99456c0.5088,0.14784 0.80064,0.67968 0.65088,1.1904c-0.14784,0.50688 -0.67584,0.80064 -1.1904,0.65088c-2.0832,-0.60864 -4.25088,-0.91584 -6.4512,-0.91584c-5.03232,0 -9.81312,1.59168 -13.82208,4.60416c-0.17472,0.13248 -0.37824,0.19392 -0.57792,0.19392z" />
				</g>
				<g fill="#1f212b">
					<path d="M31.71648,124.8c-0.49728,0 -0.91776,-0.38208 -0.95616,-0.88704c-0.02688,-0.34176 -0.04032,-0.68544 -0.04032,-1.03296c0,-7.40928 6.0288,-13.44 13.44,-13.44c1.46688,0 2.90304,0.23616 4.28352,0.7008c1.3824,-4.91904 5.87136,-8.3808 11.07648,-8.3808c2.68032,0 5.29344,0.94272 7.35552,2.65536c0.40704,0.33984 0.46464,0.94464 0.1248,1.35168c-0.33984,0.40704 -0.94464,0.46272 -1.35168,0.1248c-1.7184,-1.42656 -3.89376,-2.21184 -6.12864,-2.21184c-4.66176,0 -8.63232,3.3312 -9.44256,7.92192c-0.04992,0.288 -0.23232,0.53952 -0.4896,0.67968c-0.2592,0.14016 -0.5664,0.15168 -0.83712,0.03648c-1.46304,-0.63744 -3.00672,-0.95808 -4.59072,-0.95808c-6.35328,0 -11.52,5.16672 -11.52,11.52c0,0.2976 0.01152,0.5952 0.03456,0.88704c0.04032,0.528 -0.3552,0.99072 -0.8832,1.02912c-0.02688,0.00384 -0.05184,0.00384 -0.07488,0.00384z" />
				</g>
				<g fill="#1f212b">
					<g>
						<path d="M96,132.47808c-2.11776,0 -3.84,-1.72224 -3.84,-3.84v-43.6032l-8.61696,9.63648c-0.6528,0.76416 -1.58592,1.23648 -2.60736,1.3152c-1.02336,0.0768 -2.01408,-0.24768 -2.7936,-0.91392c-1.6032,-1.37664 -1.78944,-3.80352 -0.41664,-5.41056l15.36768,-17.2896c1.46304,-1.69728 4.36992,-1.69344 5.82144,0.00768l15.34848,17.26656c0.60672,0.70656 0.93504,1.5936 0.93504,2.51136c0,1.12512 -0.4896,2.1888 -1.34016,2.9184c-0.77568,0.66816 -1.77408,0.99264 -2.79168,0.91392c-1.02144,-0.07872 -1.95456,-0.54912 -2.6208,-1.32864l-8.60544,-9.62496v43.60128c0,2.11776 -1.72224,3.84 -3.84,3.84zM93.12,81.55968c0.1152,0 0.2304,0.02112 0.34176,0.06336c0.37248,0.14208 0.61824,0.4992 0.61824,0.89664v46.1184c0,1.05984 0.86208,1.92 1.92,1.92c1.05792,0 1.92,-0.86016 1.92,-1.92v-46.11456c0,-0.39744 0.24576,-0.75648 0.61632,-0.89664c0.37824,-0.14208 0.79488,-0.04032 1.05984,0.25728l10.29312,11.50848c0.69888,0.81792 1.91232,0.91392 2.71872,0.2208c0.42624,-0.36288 0.67008,-0.89664 0.67008,-1.4592c0,-0.46464 -0.15936,-0.89664 -0.4608,-1.24608l-15.3504,-17.26848c-0.75456,-0.87936 -2.19456,-0.864 -2.92416,-0.01152c-0.00384,0.00384 -0.00768,0.00768 -0.01152,0.01152l-15.36,17.28c-0.67392,0.79104 -0.58176,2.0064 0.21888,2.69376c0.80256,0.68544 2.016,0.59712 2.7072,-0.20736l10.30656,-11.52576c0.18624,-0.20736 0.44736,-0.32064 0.71616,-0.32064z" />
					</g>
				</g>
			</g>
			<path d="M0,192v-192h192v192z" fill="none" stroke="none" stroke-width="1" stroke-linejoin="miter" />
			<g id="Layer_1" stroke="none" stroke-width="1" stroke-linejoin="miter">
				<path d="M164.18112,95.02656c0.59712,-2.13696 0.93888,-4.37952 0.93888,-6.70656c0,-13.7856 -11.1744,-24.96 -24.96,-24.96c-7.0176,0 -13.34784,2.90496 -17.88288,7.56672c-2.71296,-13.08864 -14.304,-22.92672 -28.19712,-22.92672c-15.90528,0 -28.8,12.89472 -28.8,28.8c0,0.88704 0.05376,1.76064 0.13248,2.62656c-3.07392,-2.81472 -7.15584,-4.54656 -11.65248,-4.54656c-9.54432,0 -17.28,7.73568 -17.28,17.28c0,0.64896 0.04224,1.28832 0.11328,1.92h-2.03328c-13.7856,0 -24.96,11.1744 -24.96,24.96c0,13.7856 11.1744,24.96 24.96,24.96h122.88c13.7856,0 24.96,-11.1744 24.96,-24.96c0,-11.44512 -7.71264,-21.06816 -18.21888,-24.01344z" fill="#39c2d8" />
				<g fill="#fefdef">
					<path d="M93.81504,73.00224l-15.36,17.28c-1.03488,1.21152 -0.89472,3.02592 0.31104,4.0608c1.20768,1.03488 3.02592,0.89664 4.0608,-0.31104l10.29312,-11.5104v46.11648c0,1.58976 1.29024,2.88 2.88,2.88c1.58976,0 2.88,-1.29024 2.88,-2.88v-46.11456l10.29312,11.5104c1.03488,1.20768 2.85312,1.34592 4.0608,0.31104c0.66432,-0.57024 1.00416,-1.37664 1.00416,-2.1888c0,-0.66432 -0.22656,-1.32864 -0.69312,-1.87392l-15.36,-17.28c-0.54528,-0.63744 -1.344,-1.00416 -2.18304,-1.00416c-0.83904,0 -1.63968,0.36672 -2.18688,1.00416z" />
				</g>
				<g fill="#1f212b">
					<path d="M157.44,145.92h-122.88c-14.8224,0 -26.88,-12.0576 -26.88,-26.88c0,-14.8224 12.0576,-26.88 26.88,-26.88c0,-10.58688 8.61312,-19.2 19.2,-19.2c3.408,0 6.71808,0.90816 9.62496,2.6016c0.6528,-16.368 14.17152,-29.4816 30.69504,-29.4816c13.39008,0 25.20768,8.78208 29.24352,21.29856c4.75968,-3.8496 10.62912,-5.93856 16.83648,-5.93856c14.8224,0 26.88,12.0576 26.88,26.88c0,1.79328 -0.192,3.6096 -0.57024,5.42016c10.5984,3.78432 17.85024,13.93344 17.85024,25.29984c0,14.8224 -12.0576,26.88 -26.88,26.88zM34.56,96c-12.70464,0 -23.04,10.33536 -23.04,23.04c0,12.70464 10.33536,23.04 23.04,23.04h122.88c12.70464,0 23.04,-10.33536 23.04,-23.04c0,-10.27392 -6.91584,-19.38816 -16.81728,-22.16448c-1.0176,-0.28608 -1.61472,-1.34208 -1.33056,-2.3616c0.576,-2.07168 0.86784,-4.15488 0.86784,-6.19392c0,-12.70464 -10.33536,-23.04 -23.04,-23.04c-6.26304,0 -12.12288,2.48064 -16.50624,6.98688c-0.49728,0.51072 -1.23264,0.70656 -1.91424,0.50496c-0.67968,-0.19968 -1.19808,-0.7584 -1.34208,-1.45344c-2.56896,-12.39936 -13.63776,-21.3984 -26.31744,-21.3984c-14.8224,0 -26.88,12.0576 -26.88,26.88c0,0.82944 0.05184,1.64352 0.1248,2.45184c0.07104,0.78912 -0.34944,1.54368 -1.05984,1.89312c-0.7104,0.35328 -1.5648,0.23232 -2.14848,-0.30336c-2.84736,-2.60544 -6.52608,-4.0416 -10.35648,-4.0416c-8.46912,0 -15.36,6.89088 -15.36,15.36c0,0.57984 0.04032,1.14816 0.10176,1.71072c0.05952,0.54336 -0.1152,1.0848 -0.48,1.48992c-0.36288,0.40704 -0.8832,0.63936 -1.42848,0.63936z" />
				</g>
				<g fill="#1f212b">
					<path d="M138.23808,105.6c-0.2016,0 -0.40512,-0.06336 -0.57792,-0.19392c-0.42432,-0.31872 -0.5088,-0.91968 -0.19008,-1.344c0.52608,-0.7008 1.08864,-1.3728 1.66848,-1.9968c0.36096,-0.38592 0.9696,-0.40896 1.35744,-0.048c0.38784,0.36096 0.41088,0.96768 0.048,1.35744c-0.53376,0.57408 -1.05408,1.19424 -1.54176,1.8432c-0.18624,0.25152 -0.47424,0.38208 -0.76416,0.38208z" />
				</g>
				<g fill="#1f212b">
					<path d="M143.04,100.79808c-0.28992,0 -0.57984,-0.13248 -0.76608,-0.38208c-0.31872,-0.42624 -0.23424,-1.02528 0.19008,-1.344c4.34496,-3.26784 9.5232,-4.992 14.976,-4.992c2.3808,0 4.7328,0.33408 6.99072,0.99456c0.5088,0.14784 0.80064,0.67968 0.65088,1.1904c-0.14784,0.50688 -0.67584,0.80064 -1.1904,0.65088c-2.0832,-0.60864 -4.25088,-0.91584 -6.4512,-0.91584c-5.03232,0 -9.81312,1.59168 -13.82208,4.60416c-0.17472,0.13248 -0.37824,0.19392 -0.57792,0.19392z" />
				</g>
				<g fill="#1f212b">
					<path d="M31.71648,124.8c-0.49728,0 -0.91776,-0.38208 -0.95616,-0.88704c-0.02688,-0.34176 -0.04032,-0.68544 -0.04032,-1.03296c0,-7.40928 6.0288,-13.44 13.44,-13.44c1.46688,0 2.90304,0.23616 4.28352,0.7008c1.3824,-4.91904 5.87136,-8.3808 11.07648,-8.3808c2.68032,0 5.29344,0.94272 7.35552,2.65536c0.40704,0.33984 0.46464,0.94464 0.1248,1.35168c-0.33984,0.40704 -0.94464,0.46272 -1.35168,0.1248c-1.7184,-1.42656 -3.89376,-2.21184 -6.12864,-2.21184c-4.66176,0 -8.63232,3.3312 -9.44256,7.92192c-0.04992,0.288 -0.23232,0.53952 -0.4896,0.67968c-0.2592,0.14016 -0.5664,0.15168 -0.83712,0.03648c-1.46304,-0.63744 -3.00672,-0.95808 -4.59072,-0.95808c-6.35328,0 -11.52,5.16672 -11.52,11.52c0,0.2976 0.01152,0.5952 0.03456,0.88704c0.04032,0.528 -0.3552,0.99072 -0.8832,1.02912c-0.02688,0.00384 -0.05184,0.00384 -0.07488,0.00384z" />
				</g>
				<g fill="#1f212b">
					<g>
						<path d="M96,132.47808c-2.11776,0 -3.84,-1.72224 -3.84,-3.84v-43.6032l-8.61696,9.63648c-0.6528,0.76416 -1.58592,1.23648 -2.60736,1.3152c-1.02336,0.0768 -2.01408,-0.24768 -2.7936,-0.91392c-1.6032,-1.37664 -1.78944,-3.80352 -0.41664,-5.41056l15.36768,-17.2896c1.46304,-1.69728 4.36992,-1.69344 5.82144,0.00768l15.34848,17.26656c0.60672,0.70656 0.93504,1.5936 0.93504,2.51136c0,1.12512 -0.4896,2.1888 -1.34016,2.9184c-0.77568,0.66816 -1.77408,0.99264 -2.79168,0.91392c-1.02144,-0.07872 -1.95456,-0.54912 -2.6208,-1.32864l-8.60544,-9.62496v43.60128c0,2.11776 -1.72224,3.84 -3.84,3.84zM93.12,81.55968c0.1152,0 0.2304,0.02112 0.34176,0.06336c0.37248,0.14208 0.61824,0.4992 0.61824,0.89664v46.1184c0,1.05984 0.86208,1.92 1.92,1.92c1.05792,0 1.92,-0.86016 1.92,-1.92v-46.11456c0,-0.39744 0.24576,-0.75648 0.61632,-0.89664c0.37824,-0.14208 0.79488,-0.04032 1.05984,0.25728l10.29312,11.50848c0.69888,0.81792 1.91232,0.91392 2.71872,0.2208c0.42624,-0.36288 0.67008,-0.89664 0.67008,-1.4592c0,-0.46464 -0.15936,-0.89664 -0.4608,-1.24608l-15.3504,-17.26848c-0.75456,-0.87936 -2.19456,-0.864 -2.92416,-0.01152c-0.00384,0.00384 -0.00768,0.00768 -0.01152,0.01152l-15.36,17.28c-0.67392,0.79104 -0.58176,2.0064 0.21888,2.69376c0.80256,0.68544 2.016,0.59712 2.7072,-0.20736l10.30656,-11.52576c0.18624,-0.20736 0.44736,-0.32064 0.71616,-0.32064z" />
					</g>
				</g>
			</g>
			<path d="" fill="none" stroke="none" stroke-width="1" stroke-linejoin="miter" />
			<path d="" fill="none" stroke="none" stroke-width="1" stroke-linejoin="miter" />
			<path d="" fill="none" stroke="none" stroke-width="1" stroke-linejoin="miter" />
			<path d="" fill="none" stroke="none" stroke-width="1" stroke-linejoin="miter" />
			<path d="" fill="none" stroke="none" stroke-width="1" stroke-linejoin="miter" />
			<path d="" fill="none" stroke="none" stroke-width="1" stroke-linejoin="miter" />
			<path d="" fill="none" stroke="none" stroke-width="1" stroke-linejoin="miter" />
			<path d="" fill="none" stroke="none" stroke-width="1" stroke-linejoin="miter" />
		</g>
	</g>
</svg>
